<?xml version="1.0" encoding="iso-8859-1"?>
<!-- Generator: Adobe Illustrator 19.0.0, SVG Export Plug-In . SVG Version: 6.00 Build 0)  -->
<svg version="1.1" id="Layer_1" xmlns="http://www.w3.org/2000/svg" xmlns:xlink="http://www.w3.org/1999/xlink" x="0px" y="0px"
	 viewBox="0 0 503.607 503.607" style="enable-background:new 0 0 503.607 503.607;" xml:space="preserve">
<g transform="translate(1 1)">
	<path style="fill:#FFDD09;" d="M250.803,7.393c-120.866,0-218.229,109.115-218.229,243.41s97.364,243.41,218.229,243.41
		s218.23-109.115,218.23-243.41S371.669,7.393,250.803,7.393"/>
	<path style="fill:#FFFFFF;" d="M32.574,250.803c0-134.295,97.364-243.41,218.229-243.41c-134.295,0-243.41,109.115-243.41,243.41
		s109.115,243.41,243.41,243.41C129.938,494.213,32.574,385.938,32.574,250.803"/>
	<path style="fill:#FD9808;" d="M250.803,7.393c120.866,0,218.23,109.115,218.23,243.41s-97.364,243.41-218.23,243.41
		c134.295,0,243.41-109.115,243.41-243.41S385.098,7.393,250.803,7.393"/>
	<path style="fill:#54C9FD;" d="M275.984,250.803c0-14.269-10.911-25.18-25.18-25.18c-14.269,0-25.18,10.911-25.18,25.18
		c0,14.269,10.911,25.18,25.18,25.18C265.072,275.984,275.984,265.072,275.984,250.803"/>
	<path d="M250.803,502.607C112.311,502.607-1,390.134-1,250.803S112.311-1,250.803-1s251.803,113.311,251.803,251.803
		S389.295,502.607,250.803,502.607z M250.803,15.787c-129.259,0-235.016,105.757-235.016,235.016S121.544,485.82,250.803,485.82
		S485.82,380.062,485.82,250.803S380.062,15.787,250.803,15.787z"/>
	<path d="M250.803,418.672c-44.485,0-87.292-17.626-118.348-49.521c-3.357-3.357-3.357-8.393,0-11.751
		c3.357-3.357,8.393-3.357,11.751,0c28.538,29.377,66.308,44.485,106.597,44.485c83.095,0,151.082-67.987,151.082-151.082
		S333.898,99.721,250.803,99.721S99.721,167.708,99.721,250.803c0,8.393,0.839,16.787,1.679,24.341
		c0.839,4.197-2.518,9.233-6.715,9.233c-4.197,0.839-9.233-2.518-9.233-6.715c-1.679-8.393-2.518-17.626-2.518-26.859
		c0-92.328,75.541-167.869,167.869-167.869s167.869,75.541,167.869,167.869C418.672,343.97,343.131,418.672,250.803,418.672z"/>
	<path d="M250.803,334.738c-22.662,0-43.646-8.393-59.593-24.341c-3.357-3.357-3.357-8.393,0-11.751
		c3.357-3.357,8.393-3.357,11.751,0c12.59,12.59,29.377,19.305,47.843,19.305c36.931,0,67.148-30.216,67.148-67.148
		s-30.216-67.148-67.148-67.148s-67.148,30.216-67.148,67.148c0,3.357,0,7.554,0.839,10.911c0.839,4.197-2.518,9.233-6.715,9.233
		c-4.197,0.839-9.233-2.518-9.233-6.715c-1.679-4.197-1.679-8.393-1.679-13.429c0-46.164,37.77-83.934,83.934-83.934
		s83.934,37.77,83.934,83.934S296.967,334.738,250.803,334.738z"/>
	<path d="M108.115,401.885c-2.518,0-4.197-0.839-5.875-2.518c-3.357-3.357-3.357-8.393,0-11.751l125.062-125.062
		c3.357-3.357,8.393-3.357,11.751,0c3.357,3.357,3.357,8.393,0,11.751L113.99,399.367
		C112.311,401.046,110.633,401.885,108.115,401.885z"/>
	<path d="M91.328,158.475c0-9.233-7.554-16.787-16.787-16.787s-16.787,7.554-16.787,16.787s7.554,16.787,16.787,16.787
		S91.328,167.708,91.328,158.475"/>
	<path d="M351.525,326.344c0-9.233-7.554-16.787-16.787-16.787c-9.233,0-16.787,7.554-16.787,16.787
		c0,9.233,7.554,16.787,16.787,16.787C343.97,343.131,351.525,335.577,351.525,326.344"/>
	<path d="M376.705,91.328c0-9.233-7.554-16.787-16.787-16.787c-9.233,0-16.787,7.554-16.787,16.787s7.554,16.787,16.787,16.787
		C369.151,108.115,376.705,100.561,376.705,91.328"/>
	<path d="M250.803,284.377c-18.466,0-33.574-15.108-33.574-33.574s15.108-33.574,33.574-33.574s33.574,15.108,33.574,33.574
		S269.269,284.377,250.803,284.377z M250.803,234.016c-9.233,0-16.787,7.554-16.787,16.787c0,9.233,7.554,16.787,16.787,16.787
		c9.233,0,16.787-7.554,16.787-16.787C267.59,241.57,260.036,234.016,250.803,234.016z"/>
</g>
<g>
</g>
<g>
</g>
<g>
</g>
<g>
</g>
<g>
</g>
<g>
</g>
<g>
</g>
<g>
</g>
<g>
</g>
<g>
</g>
<g>
</g>
<g>
</g>
<g>
</g>
<g>
</g>
<g>
</g>
</svg>
